<svg width="1600" height="1000" viewBox="0 0 1600 1000" fill="none" xmlns="http://www.w3.org/2000/svg">
  <defs>
    <linearGradient id="bg" x1="180" y1="60" x2="1440" y2="940" gradientUnits="userSpaceOnUse">
      <stop stop-color="#122847"/>
      <stop offset="0.48" stop-color="#254975"/>
      <stop offset="1" stop-color="#D6E0ED"/>
    </linearGradient>
    <linearGradient id="glass" x1="800" y1="80" x2="800" y2="920" gradientUnits="userSpaceOnUse">
      <stop stop-color="#DCE6F2" stop-opacity="0.28"/>
      <stop offset="1" stop-color="#F8FBFF" stop-opacity="0.06"/>
    </linearGradient>
    <linearGradient id="tower" x1="0" y1="0" x2="0" y2="1">
      <stop stop-color="#10233E"/>
      <stop offset="1" stop-color="#345D8F"/>
    </linearGradient>
    <linearGradient id="accent" x1="0" y1="0" x2="1" y2="1">
      <stop stop-color="#8DB2E8"/>
      <stop offset="1" stop-color="#C9D8EA"/>
    </linearGradient>
    <filter id="blur" x="0" y="0" width="1600" height="1000" filterUnits="userSpaceOnUse">
      <feGaussianBlur stdDeviation="30"/>
    </filter>
  </defs>

  <rect width="1600" height="1000" fill="url(#bg)"/>

  <g opacity="0.34">
    <path d="M0 760C265 690 474 636 610 600C734 568 846 572 937 614C1037 660 1170 765 1600 962V1000H0V760Z" fill="#F2F7FD"/>
  </g>

  <g opacity="0.22">
    <circle cx="1120" cy="230" r="290" fill="#E7F0FA" filter="url(#blur)"/>
  </g>

  <g opacity="0.9">
    <path d="M25 1000L285 0H630L316 1000H25Z" fill="url(#tower)"/>
    <path d="M1034 1000L1278 136H1540L1368 1000H1034Z" fill="url(#tower)"/>
    <path d="M540 1000L760 118H1034L926 1000H540Z" fill="url(#tower)"/>
  </g>

  <g opacity="0.85" stroke="url(#accent)" stroke-width="12">
    <path d="M78 1000L340 62"/>
    <path d="M200 1000L462 62"/>
    <path d="M410 1000L660 62"/>
    <path d="M610 1000L810 170"/>
    <path d="M820 1000L996 170"/>
    <path d="M1080 1000L1306 180"/>
    <path d="M1244 1000L1444 180"/>
  </g>

  <g opacity="0.4" stroke="#DDE8F6" stroke-width="5">
    <path d="M42 118H610"/>
    <path d="M86 268H542"/>
    <path d="M122 416H498"/>
    <path d="M612 234H1012"/>
    <path d="M584 390H992"/>
    <path d="M554 550H960"/>
    <path d="M1104 240H1488"/>
    <path d="M1064 408H1454"/>
    <path d="M1020 576H1416"/>
  </g>

  <g opacity="0.18" stroke="#F4F9FF" stroke-width="3">
    <path d="M0 896H1600"/>
    <path d="M0 848H1600"/>
    <path d="M0 804H1600"/>
  </g>

  <g opacity="0.16" transform="translate(720 352)">
    <path d="M132 0L250 272H206L168 182H90L48 272H0L120 0H132ZM156 146L126 70L98 146H156Z" fill="#F4F8FE"/>
    <path d="M320 72L412 272H370L304 132L236 272H194L286 72H320Z" fill="#F4F8FE"/>
  </g>

  <rect x="0" y="0" width="1600" height="1000" fill="url(#glass)"/>
</svg>