<?xml version="1.0" encoding="UTF-8"?>
<svg version="1.1" xmlns="http://www.w3.org/2000/svg" width="146" height="133">
<path d="M0 0 C4.07651934 2.71767956 5.49396105 6.05307 7.75 10.3125 C8.38615234 11.45235352 8.38615234 11.45235352 9.03515625 12.61523438 C12.05565318 18.27743627 12.05565318 18.27743627 11.765625 22.04296875 C11.38664062 23.01169922 11.38664062 23.01169922 11 24 C10.34 24 9.68 24 9 24 C9.07992187 24.66128906 9.15984375 25.32257812 9.2421875 26.00390625 C8.90202274 30.2120735 7.10025846 33.25695785 5.125 36.9375 C2.67315191 41.57695108 0.61864352 45.99211515 -1 51 C-2.11820349 53.49777021 -3.25556636 55.97074677 -4.4375 58.4375 C-6.21682058 62.17598647 -7.9807159 65.91049832 -9.59765625 69.72265625 C-10.65107791 72.18455255 -11.80244995 74.60489991 -13 77 C0.2 77 13.4 77 27 77 C26.67 76.34 26.34 75.68 26 75 C15.11 74.67 4.22 74.34 -7 74 C-7 70 -7 70 -6 67 C-3.28598706 65.64299353 -1.15153684 65.8876139 1.8828125 65.90234375 C3.04941406 65.90556641 4.21601562 65.90878906 5.41796875 65.91210938 C6.64128906 65.92048828 7.86460938 65.92886719 9.125 65.9375 C10.35605469 65.94201172 11.58710937 65.94652344 12.85546875 65.95117188 C15.90369392 65.9629867 18.95182314 65.97945972 22 66 C21.71125 65.32453125 21.4225 64.6490625 21.125 63.953125 C20.75375 63.06109375 20.3825 62.1690625 20 61.25 C19.62875 60.36828125 19.2575 59.4865625 18.875 58.578125 C18 56 18 56 18 52 C17.01 51.505 17.01 51.505 16 51 C14.75272425 48.5054485 15.11065403 47.60628506 15.75 44.9375 C15.90984375 44.22464844 16.0696875 43.51179688 16.234375 42.77734375 C16.61335938 41.89755859 16.61335938 41.89755859 17 41 C17.99 40.67 18.98 40.34 20 40 C24.48445738 48.16345397 28.85423558 56.20427711 32 65 C32.99 65 33.98 65 35 65 C34.48050781 63.97261719 33.96101563 62.94523437 33.42578125 61.88671875 C30.22496318 55.53730325 27.0290627 49.18348476 24 42.75 C23.4121875 41.50476562 23.4121875 41.50476562 22.8125 40.234375 C22 38 22 38 22 34 C21.01 33.505 21.01 33.505 20 33 C21.3125 30.0625 21.3125 30.0625 23 27 C23.99 26.67 24.98 26.34 26 26 C39 51.59793814 39 51.59793814 39 57 C39.66 57 40.32 57 41 57 C41.16113281 57.56589844 41.32226562 58.13179687 41.48828125 58.71484375 C42.41672207 61.21855383 43.22586017 62.98844487 45 65 C47.85317035 65.56284089 50.52165098 65.56273125 53.42578125 65.59375 C56 66 56 66 57.60546875 67.59375 C58.6875 69.5625 58.6875 69.5625 60 73 C59 74 59 74 56.71484375 74.09765625 C55.79832031 74.08605469 54.88179688 74.07445313 53.9375 74.0625 C52.55884766 74.04896484 52.55884766 74.04896484 51.15234375 74.03515625 C50.08693359 74.01775391 50.08693359 74.01775391 49 74 C49.62279669 75.58420129 50.24833401 77.16732531 50.875 78.75 C51.22304687 79.63171875 51.57109375 80.5134375 51.9296875 81.421875 C52.93830622 83.97688821 52.93830622 83.97688821 54.1953125 86.203125 C54.59363281 87.09257812 54.59363281 87.09257812 55 88 C54.67 88.66 54.34 89.32 54 90 C54.66 90 55.32 90 56 90 C57.23321941 92.69553492 58.46196363 95.39293811 59.68359375 98.09375 C60.45911585 99.80588189 61.24047233 101.51542748 62.03515625 103.21875 C62.74942204 104.78681257 63.38374607 106.39089251 64 108 C63.67 108.66 63.34 109.32 63 110 C63.66 110.33 64.32 110.66 65 111 C66.32421875 112.92578125 66.32421875 112.92578125 67.6875 115.3125 C68.14511719 116.09238281 68.60273438 116.87226562 69.07421875 117.67578125 C70 120 70 120 69 124 C62.73 124 56.46 124 50 124 C49.67 123.01 49.34 122.02 49 121 C48.34 120.67 47.68 120.34 47 120 C47 118.68 47 117.36 47 116 C46.34 115.67 45.68 115.34 45 115 C44.03857422 113.43359375 44.03857422 113.43359375 43.0546875 111.4375 C42.70019531 110.72335938 42.34570312 110.00921875 41.98046875 109.2734375 C41.61566406 108.52320312 41.25085938 107.77296875 40.875 107 C40.50246094 106.24976562 40.12992187 105.49953125 39.74609375 104.7265625 C37 99.15390339 37 99.15390339 37 98 C35.73816895 97.98018066 34.47633789 97.96036133 33.17626953 97.93994141 C28.50581508 97.86401235 23.8356774 97.77527588 19.16552734 97.68261719 C17.14215334 97.64427479 15.11870994 97.60943129 13.09521484 97.578125 C10.19082797 97.53258831 7.28692106 97.47457591 4.3828125 97.4140625 C3.47443634 97.40251129 2.56606018 97.39096008 1.63015747 97.37905884 C0.78943695 97.35918915 -0.05128357 97.33931946 -0.91748047 97.31884766 C-1.65916473 97.30552399 -2.400849 97.29220032 -3.16500854 97.2784729 C-5 97 -5 97 -7 95 C-5.8020195 92.39032892 -5.08542465 90.88571717 -3 89 C0.40478627 88.1322624 3.74016063 88.30177585 7.234375 88.4140625 C8.22753723 88.42255219 9.22069946 88.43104187 10.24395752 88.43978882 C13.41374541 88.47335612 16.58098215 88.54864391 19.75 88.625 C21.89970283 88.65509519 24.04944556 88.68247177 26.19921875 88.70703125 C31.46701514 88.77315747 36.73332534 88.87353787 42 89 C42 89.66 42 90.32 42 91 C42.66 91.33 43.32 91.66 44 92 C45.29124941 94.42182298 46.47940163 96.82338483 47.625 99.3125 C48.11226562 100.32860352 48.11226562 100.32860352 48.609375 101.36523438 C50.24233092 104.87471736 51 107.06724804 51 111 C51.66 111.33 52.32 111.66 53 112 C53.33 112.99 53.66 113.98 54 115 C56.01508358 115.73323796 56.01508358 115.73323796 58 116 C57.505 114.9275 57.01 113.855 56.5 112.75 C55.11346089 109.74583192 55 108.54065105 55 105 C54.34 105 53.68 105 53 105 C48.27173913 94.6327067 48.27173913 94.6327067 46 89.4375 C44.51318112 86.10871117 43.00223617 82.79295224 41.4375 79.5 C41.04433594 78.6646875 40.65117188 77.829375 40.24609375 76.96875 C39.08652838 74.6774612 39.08652838 74.6774612 36 74 C37.32 76.97 38.64 79.94 40 83 C38.47208917 84.52791083 37.07010592 84.16183457 34.93920898 84.20532227 C34.07839218 84.22526749 33.21757538 84.24521271 32.33067322 84.26576233 C31.39526199 84.28247482 30.45985077 84.29918732 29.49609375 84.31640625 C28.54307877 84.33718735 27.59006378 84.35796844 26.60816956 84.37937927 C23.5513559 84.44498177 20.49445344 84.50380918 17.4375 84.5625 C15.37043337 84.60567506 13.30337586 84.64928901 11.23632812 84.69335938 C6.15764405 84.80067401 1.0788703 84.90191091 -4 85 C-6.475 90.445 -6.475 90.445 -9 96 C-9.66 96 -10.32 96 -11 96 C-11.14308594 97.49853516 -11.14308594 97.49853516 -11.2890625 99.02734375 C-11.8976214 103.27124138 -13.48467861 106.74670662 -15.375 110.5625 C-15.83132812 111.51286133 -15.83132812 111.51286133 -16.296875 112.48242188 C-18.15720838 116.34221614 -20.08370791 120.16741581 -22 124 C-28.27 124 -34.54 124 -41 124 C-41.33 123.34 -41.66 122.68 -42 122 C-41.06421005 119.64018187 -40.06652192 117.30368736 -39 115 C-35.04 115 -31.08 115 -27 115 C-26.649375 113.989375 -26.29875 112.97875 -25.9375 111.9375 C-24.10022276 107.0146519 -21.85311954 102.28746897 -19.60131836 97.54467773 C-17.63610898 93.4006138 -15.78377934 89.22559923 -14 85 C-17.01750549 85.64674464 -17.01750549 85.64674464 -17.95703125 87.57421875 C-18.23933594 88.27160156 -18.52164063 88.96898438 -18.8125 89.6875 C-19.14636719 90.48800781 -19.48023437 91.28851563 -19.82421875 92.11328125 C-20.21222656 93.06589844 -20.60023437 94.01851563 -21 95 C-21.77189498 96.83151431 -22.54401662 98.66294353 -23.32299805 100.49145508 C-24.09831722 102.31233406 -24.86570887 104.13658224 -25.6328125 105.9609375 C-27 109 -27 109 -29 112 C-32.625 112.1875 -32.625 112.1875 -36 112 C-37 109 -37 109 -35.3125 105.4375 C-34.75755859 104.39916016 -34.75755859 104.39916016 -34.19140625 103.33984375 C-32.16137369 99.35299292 -30.60700046 95.1713629 -29 91 C-28.34 91 -27.68 91 -27 91 C-27.020625 90.195625 -27.04125 89.39125 -27.0625 88.5625 C-27 86 -27 86 -26 85 C-29.63 85 -33.26 85 -37 85 C-37 84.01 -37 83.02 -37 82 C-36.01 81.505 -36.01 81.505 -35 81 C-35 80.01 -35 79.02 -35 78 C-34.19175781 78.04382813 -33.38351563 78.08765625 -32.55078125 78.1328125 C-29.13243297 78.12456558 -26.29168676 77.94539306 -23 77 C-20.35817183 74.00364077 -19.27362317 70.74352398 -18 67 C-17.01451587 64.66049889 -16.01320376 62.32763025 -15 60 C-14.45036333 58.72272401 -13.90088748 57.44537882 -13.3515625 56.16796875 C-10.44473982 49.45298303 -7.47335609 42.82587483 -4.125 36.31640625 C-2.51286485 32.9969752 -1.19629097 29.57995436 0.10546875 26.12890625 C1 24 1 24 3 21 C2.34 20.34 1.68 19.68 1 19 C-1.52361189 23.92104318 -3.78310181 28.93601936 -6 34 C-6.66 34 -7.32 34 -8 34 C-7.67 34.99 -7.34 35.98 -7 37 C-7.93166826 39.03273074 -8.9349985 41.03384339 -10 43 C-10.33 43.99 -10.66 44.98 -11 46 C-11.66 46 -12.32 46 -13 46 C-12.95488281 46.73089844 -12.90976562 47.46179687 -12.86328125 48.21484375 C-13.01493711 51.30429025 -13.7079504 52.87199596 -15.1875 55.5625 C-17.78141438 60.46950613 -19.91262507 65.48231227 -21.984375 70.62890625 C-23 73 -23 73 -24 74 C-26.67058851 74.14115161 -29.32432238 74.04247107 -32 74 C-32 70.40901412 -30.97498765 68.23063694 -29.5625 64.9375 C-29.11003906 63.87402344 -28.65757813 62.81054688 -28.19140625 61.71484375 C-27.49495987 60.12785937 -26.77505574 58.55011148 -26 57 C-25.34 57 -24.68 57 -24 57 C-24.0825 56.34 -24.165 55.68 -24.25 55 C-23.95376958 51.44523497 -22.79184198 49.26904317 -21.13671875 46.15625 C-18.23864526 40.65887349 -15.93479207 34.86298145 -13.5625 29.125 C-11.49285265 24.12068241 -9.29493504 19.18940115 -7.015625 14.27734375 C-5.91675515 11.91291657 -5.91675515 11.91291657 -5 9 C-4.34 9 -3.68 9 -3 9 C-2.814375 7.329375 -2.814375 7.329375 -2.625 5.625 C-2 2 -2 2 0 0 Z " fill="#0E254D" transform="translate(61,3)"/>
<path d="M0 0 C3.1545595 1.03795184 3.93799576 1.88344471 5.52734375 4.87109375 C5.99269531 6.04800781 6.45804688 7.22492187 6.9375 8.4375 C7.45472965 9.71264547 7.97297093 10.98738103 8.4921875 12.26171875 C8.87262207 13.21183838 8.87262207 13.21183838 9.26074219 14.18115234 C11.73667926 20.27287335 14.57572257 26.20732351 17.5625 32.0625 C24 44.81526899 24 44.81526899 24 50 C24.66 50 25.32 50 26 50 C26.20496094 50.55429687 26.40992188 51.10859375 26.62109375 51.6796875 C26.89050781 52.40414062 27.15992188 53.12859375 27.4375 53.875 C27.70433594 54.59429687 27.97117188 55.31359375 28.24609375 56.0546875 C28.97916854 58.03648845 28.97916854 58.03648845 30 60 C29.505 60.99 29.505 60.99 29 62 C26.36 62 23.72 62 21 62 C20.72414062 61.28972656 20.44828125 60.57945313 20.1640625 59.84765625 C18.60396412 56.03117398 16.80689361 52.3374864 15.0234375 48.62109375 C14 46 14 46 14 42 C13.01 41.505 13.01 41.505 12 41 C10.59168739 38.45623535 9.27562155 35.92151582 8 33.3125 C7.64421875 32.60416016 7.2884375 31.89582031 6.921875 31.16601562 C4.95067339 27.18315863 3.29017414 23.26698217 2 19 C-1.4752372 21.68541057 -1.85489041 24.89107735 -3 29 C-3.95216283 31.0821154 -4.98850425 33.10295219 -6.046875 35.1328125 C-7.18701624 37.36636788 -8.11986863 39.65298302 -9 42 C-9.66 42 -10.32 42 -11 42 C-10.938125 42.680625 -10.87625 43.36125 -10.8125 44.0625 C-11.05868263 47.91936125 -12.35802162 50.51079594 -14 54 C-14.66 54 -15.32 54 -16 54 C-15.67 54.99 -15.34 55.98 -15 57 C-15.9375 59.6875 -15.9375 59.6875 -18 62 C-20.79544889 62.45123388 -23.1426533 62.23420875 -26 62 C-26.33 61.34 -26.66 60.68 -27 60 C-26.67 59.34 -26.34 58.68 -26 58 C-25.34 58 -24.68 58 -24 58 C-23.896875 57.13375 -23.79375 56.2675 -23.6875 55.375 C-22.95950841 51.80122313 -21.67825584 49.22225122 -20 46 C-19.71125 45.113125 -19.4225 44.22625 -19.125 43.3125 C-17.44936273 38.37867916 -15.17961577 33.72830387 -13 29 C-10.48852982 23.34919209 -8.32561869 17.59178394 -6.18359375 11.79296875 C-5 9 -5 9 -3 7 C-1.96157435 4.68351201 -0.9578025 2.35096976 0 0 Z " fill="#0E2349" transform="translate(85,3)"/>
<path d="M0 0 C2.97 0.33 5.94 0.66 9 1 C9.391875 1.928125 9.78375 2.85625 10.1875 3.8125 C11.1833271 6.15843885 12.22210606 8.46933126 13.3125 10.7734375 C13.993125 12.21589844 13.993125 12.21589844 14.6875 13.6875 C15.34298828 15.05455078 15.34298828 15.05455078 16.01171875 16.44921875 C17 19 17 19 17 23 C17.66 23.33 18.32 23.66 19 24 C20.43730149 26.52189095 21.7699117 29.0305741 23.0625 31.625 C23.60874023 32.67494141 23.60874023 32.67494141 24.16601562 33.74609375 C26.41436822 38.22617527 27.57358888 42.00114965 28 47 C24.625 47.125 24.625 47.125 21 47 C18.74142645 44.74142645 18.13143379 42.96014654 17 40 C16.30751305 38.59623769 15.59817885 37.20069997 14.875 35.8125 C12.35282788 30.80602622 9.99792322 25.7317404 7.6875 20.625 C7.32575684 19.83971924 6.96401367 19.05443848 6.59130859 18.24536133 C6.25566895 17.49665771 5.9200293 16.7479541 5.57421875 15.9765625 C5.11921997 14.97230225 5.11921997 14.97230225 4.6550293 13.94775391 C4 12 4 12 4 8 C3.34 7.67 2.68 7.34 2 7 C0 4 0 4 0 0 Z " fill="#0D2247" transform="translate(115,80)"/>
<path d="M0 0 C1.134375 0.020625 2.26875 0.04125 3.4375 0.0625 C3.7675 0.7225 4.0975 1.3825 4.4375 2.0625 C3.36341043 4.66724038 2.23704367 7.16216038 1 9.6875 C0.66162109 10.39390625 0.32324219 11.1003125 -0.02539062 11.828125 C-0.86404879 13.57631384 -1.71237847 15.31985686 -2.5625 17.0625 C-3.2225 17.0625 -3.8825 17.0625 -4.5625 17.0625 C-4.50191406 17.75859375 -4.44132812 18.4546875 -4.37890625 19.171875 C-4.60921421 22.79800029 -5.82027008 25.10322777 -7.5 28.3125 C-8.04527344 29.36953125 -8.59054688 30.4265625 -9.15234375 31.515625 C-10.5625 34.0625 -10.5625 34.0625 -11.5625 35.0625 C-13.89547433 35.10342937 -16.22955225 35.10491723 -18.5625 35.0625 C-19.5625 32.0625 -19.5625 32.0625 -18.453125 29.390625 C-17.64101563 27.86695313 -17.64101563 27.86695313 -16.8125 26.3125 C-15.12687374 23.08042762 -13.49899915 19.91433134 -12.0625 16.5625 C-5.00189394 0.08775253 -5.00189394 0.08775253 0 0 Z " fill="#0D2147" transform="translate(25.5625,91.9375)"/>
<path d="M0 0 C3.36591427 2.72478774 4.44226276 6.06856792 6 10 C5.34 10 4.68 10 4 10 C1 5.61538462 1 5.61538462 1 3 C0.01 2.67 -0.98 2.34 -2 2 C-1.34 1.34 -0.68 0.68 0 0 Z " fill="#040D1D" transform="translate(86,29)"/>
</svg>
